<svg xmlns="http://www.w3.org/2000/svg" width="683.396" height="116.525" viewBox="0 60 683.396 116.525"><path d="M603.337 102.07c-7.543 0-13.757 2.39-18.642 7.164-4.85 4.775-7.274 10.517-7.274 17.23 0 6.608 2.317 12.16 6.95 16.659 4.634 4.463 10.363 6.694 17.187 6.694 9.663 0 16.901-4.255 21.714-12.766-.107 9.722-1.94 17.42-5.496 23.095-3.52 5.674-8.782 8.51-15.786 8.51-7.22 0-12.357-3.269-15.41-9.808l-7.381 2.596c3.879 9.549 11.44 14.323 22.683 14.323 9.626 0 17.043-3.547 22.251-10.64a35.534 35.534 0 003.05-5.022c.972 3.679 3.309 6.963 7.022 9.85 5.028 3.875 12.122 5.812 21.282 5.812 8.584 0 15.373-1.904 20.366-5.71 5.029-3.84 7.543-8.597 7.543-14.271 0-3.183-.989-6.366-2.964-9.55-1.94-3.183-6.752-6.486-14.439-9.911 9.519-3.252 14.277-8.633 14.277-16.141 0-5.397-2.226-9.757-6.68-13.079-4.454-3.356-10.452-5.034-17.995-5.034-7.65 0-13.794 1.748-18.428 5.242-4.633 3.46-6.95 7.889-6.95 13.286 0 7.44 4.653 13.112 13.956 17.022-5.546 2.038-9.76 4.5-12.67 7.373a66.43 66.43 0 00.443-7.787c0-10.933-2.46-19.514-7.381-25.742-4.921-6.262-11.996-9.394-21.228-9.394zm52.365 6.748c4.956 0 8.944.952 11.962 2.855 3.053 1.869 4.578 4.619 4.578 8.252 0 3.114-1.274 5.709-3.824 7.784-2.55 2.076-6.915 3.91-13.093 5.502-3.807-.761-7.4-2.354-10.776-4.775-3.34-2.422-5.01-5.294-5.01-8.616 0-3.356 1.508-6.02 4.526-7.992 3.017-2.007 6.895-3.01 11.637-3.01zm-51.933.624c5.316 0 9.59 1.59 12.823 4.773 3.268 3.184 4.901 6.989 4.901 11.417 0 4.567-1.723 8.564-5.171 11.989-3.412 3.39-7.652 5.086-12.717 5.086-4.597 0-8.637-1.47-12.121-4.411-3.449-2.941-5.174-6.938-5.174-11.989 0-4.705 1.564-8.683 4.689-11.935 3.125-3.287 7.382-4.93 12.77-4.93zm50.532 31.916c13.398 3.356 20.096 8.476 20.096 15.362 0 3.598-1.706 6.556-5.118 8.874-3.412 2.319-7.919 3.478-13.522 3.478-6.61 0-11.621-1.176-15.034-3.53-3.376-2.386-5.063-5.448-5.063-9.184 0-7.162 6.213-12.163 18.64-15z" style="mix-blend-mode:normal"/><path style="line-height:normal;font-variant-ligatures:normal;font-variant-position:normal;font-variant-caps:normal;font-variant-numeric:normal;font-variant-alternates:normal;font-variant-east-asian:normal;font-feature-settings:normal;font-variation-settings:normal;text-indent:0;text-align:start;text-decoration-line:none;text-decoration-style:solid;text-decoration-color:#000;text-transform:none;text-orientation:mixed;white-space:normal;shape-padding:0;shape-margin:0;inline-size:0;isolation:auto;mix-blend-mode:normal;solid-color:#000;solid-opacity:1" d="M358.918 93.11V78.23h7.07v-4.44h-7.07v-7.478l-5.768.548v6.913l-10.938.013-.042-.503c-.169-1.985.53-3.46 1.205-4.234.708-.81 1.806-1.35 3.512-1.342 1.45.006 2.879.286 4.292.591v-4.896c-2.144-.401-3.7-.58-5.373-.521-3.102.11-5.343 1.063-6.84 2.823-1.516 1.78-2.275 4.562-2.334 8.082h-5.375v4.436h5.33v26.221h5.671V78.22l10.892-.01v14.66c0 2.863.154 4.703.401 5.967.186.95.419 1.92.97 2.69a8.714 8.714 0 003.426 2.845c1.207.571 2.818.95 4.837.95 1.974 0 4.274-.508 4.274-.508V99.83s-1.936.403-3.725.401c-1.838 0-2.913-.43-3.465-1.181-.559-.76-.95-2.778-.95-5.94zM186.087 63.382v5.644h5.574v-5.644zm-47.942.006v41.048h5.388v-32.81l12.036 32.81h4.34l12.24-32.553v32.553h5.953V63.388H170l-11.786 32.36-11.971-32.36zm119.646 41.93c4.205 0 7.602-1.527 10.235-4.531 2.635-3.007 3.833-6.935 3.833-11.69 0-4.744-1.224-8.655-3.833-11.69-2.553-2.968-5.94-4.526-10.235-4.526-4.118 0-7.556 1.501-10.154 4.528-2.559 2.982-3.828 6.934-3.828 11.687 0 4.76 1.27 8.708 3.828 11.685 2.599 3.024 6.023 4.536 10.154 4.536zM197.11 89.1c0 4.842 1.118 8.745 3.524 11.675 2.45 2.985 5.747 4.546 9.766 4.546 3.124 0 5.828-.942 7.967-2.927 2.043-1.872 3.46-4.552 4.062-7.868l.108-.597-5.274-1.003-.105.615c-.38 2.226-1.207 3.978-2.34 5.07-1.251 1.119-2.616 1.606-4.32 1.606-2.254 0-3.95-.862-5.412-2.954-1.349-1.956-2.017-4.705-2.017-8.168 0-3.453.662-6.19 2.113-8.27 1.478-1.961 3.3-2.948 5.532-2.948 1.698 0 2.994.624 4.106 1.798 1.206 1.274 1.989 2.973 2.26 5.083l.08.621 5.38-.859-.09-.598c-.5-3.31-1.759-6.15-3.766-8.093-1.997-1.932-4.636-2.942-7.592-2.942-4.217 0-7.652 1.5-10.16 4.535-2.548 3.082-3.822 6.926-3.822 11.678zm132.856 0c0-4.753-1.298-8.682-3.82-11.681-2.527-3.007-6.043-4.533-10.254-4.533-4.21 0-7.566 1.582-10.148 4.53-2.585 2.954-3.93 6.94-3.93 11.684 0 4.754 1.33 8.659 3.928 11.683 2.557 2.978 5.94 4.533 10.15 4.533 4.118 0 7.65-1.495 10.251-4.529 2.548-2.973 3.823-6.921 3.823-11.687zM235.51 74.913c-.954.801-1.784 1.904-2.491 3.226V73.77h-5.486v30.66h5.678V88.987c0-3.208.83-5.701 2.385-7.581 1.535-1.857 3.54-2.769 6.408-2.769h1.285l-.009-5.578s-1.498-.144-2.139-.17c-2.266-.093-4.136.767-5.63 2.024zm63.943 20.603c0-2.347-.906-4.26-2.441-5.653-1.538-1.394-3.849-2.732-7.23-3.45l-2.614-.557c-2.144-.455-3.726-1.087-4.723-1.763-.997-.675-1.393-1.345-1.393-2.178 0-1.3.371-2.167 1.401-2.934.928-.69 2.347-1.103 4.092-1.103 1.74 0 3.173.425 4.108 1.114 1.021.68 1.74 1.775 2.187 3.119l.172.518 5.232-1.14-.17-.62c-.702-2.56-2.174-4.533-4.114-5.87-1.983-1.366-4.418-2.104-7.23-2.104-3.28 0-6.077.929-8.14 2.696-2.04 1.75-3.216 4.055-3.216 6.876 0 2.336.714 4.332 2.237 5.662 1.563 1.365 4.188 2.448 7.833 3.227l1.525.329c2.306.496 3.966 1.16 5.03 1.919 1.063.759 1.489 1.64 1.489 2.464 0 1.273-.49 2.228-1.599 3.054-1.164.866-2.645 1.313-4.487 1.313-2.04 0-3.669-.349-5.067-1.328-1.408-.986-2.334-2.258-2.862-3.891l-.166-.517-5.136 1.014.158.625c.702 2.779 2.259 5.025 4.504 6.545l.003.002h.001c2.345 1.613 5.186 2.424 8.579 2.424 3.492 0 6.358-.935 8.616-2.788 2.16-1.772 3.42-4.278 3.42-7.006zM186.087 73.778v30.658h5.574V73.778zm71.699 26.66c-2.448 0-4.255-.976-5.717-2.955-1.447-1.96-2.205-4.698-2.205-8.382 0-3.672.78-6.402 2.122-8.275 1.47-2.053 3.335-2.948 5.8-2.948 2.56 0 4.248.929 5.698 2.947 1.47 2.047 2.307 4.713 2.307 8.276 0 3.576-.785 6.268-2.308 8.39-1.391 1.936-3.256 2.947-5.697 2.947zm58.107-22.56c2.46 0 4.287.845 5.799 2.95 1.403 1.954 2.206 4.727 2.206 8.273 0 3.562-.812 6.306-2.308 8.388-1.43 1.991-3.267 2.946-5.698 2.95-2.54.003-4.365-.955-5.798-2.95-1.485-2.067-2.213-4.822-2.213-8.388 0-3.563.808-6.264 2.217-8.283 1.418-2.031 3.234-2.94 5.795-2.94z" color="#000" font-weight="400" font-family="sans-serif" overflow="visible"/><path d="M249.415 103.825L238.907 145l-10.412-41.176h-18.106l-9.756 41.671-10.316-41.671h-21.675l19.708 71.296h19.697l9.757-40.568 10.036 40.564h19.326l15.828-57.031h21.126V103.82zm123.45 0v22.99c-1.689-2-3.659-3.51-5.822-4.414-2.058-1.001-4.404-1.509-7.218-1.509-6.657 0-12.007 2.518-16.042 7.638-2.572 3.275-4.335 7.28-5.255 12.034v-.195c0-6.824-1.401-11.745-4.22-14.863-2.815-3.113-7.32-4.624-13.412-4.624-3.565 0-6.752.805-9.381 2.313-2.63 1.41-4.693 3.612-6.288 6.624v-7.528H285.81v52.817h20.92v-32.424c0-2.407.466-4.217 1.504-5.521 1.03-1.417 2.44-2.013 4.312-2.013 1.785 0 3.005.598 3.846 1.81.848 1.206 1.216 3.114 1.216 5.62v32.532h20.92v-17.858c.894 4.714 2.588 8.706 5.07 11.944 3.846 4.916 9.097 7.327 15.758 7.327 3.19 0 5.996-.603 8.443-1.903 2.433-1.41 4.498-3.417 6.184-6.134l.095 6.63h19.792v-17.516c1.295 4.373 3.633 8.137 7.042 11.29 5.437 5.128 12.48 7.633 21.387 7.633 8.82 0 15.947-2.505 21.39-7.632 5.438-5.12 8.162-11.842 8.162-20.182a33.957 33.957 0 00-.375-5.107l10.407 31.513h15.296l7.508-29.523 7.316 29.523h15.477l11.074-33.878c.244 1.488.72 2.92 1.406 4.257 1.126 2.112 2.632 3.82 4.504 5.124 3.1 2.4 8.251 4.114 15.662 5.422l5.722.804c4.406.506 6.66 1.6 6.66 3.217 0 1.001-.658 2.006-2.064 2.505-1.41.71-3.277 1.008-5.622 1.008-3.474 0-6.293-.506-8.169-1.507-1.97-1.002-3.277-2.51-3.75-4.417l-17.171 2.006c1.503 5.418 4.6 9.438 9.48 12.253 4.785 2.808 11.063 4.218 18.757 4.218 8.26 0 14.923-1.814 19.981-5.328 5.07-3.42 7.604-7.939 7.604-13.558 0-2.112-.474-4.224-1.319-6.23-.75-1.807-1.97-3.413-3.659-4.92-2.625-2.207-7.316-3.918-14.07-5.124l-7.317-1.108c-5.535-.699-8.441-1.903-8.441-3.61 0-1.104.563-1.91 1.597-2.507 1.03-.506 2.529-.804 4.499-.804 2.63 0 4.78.4 6.292 1.208a8.395 8.395 0 013.75 3.416l16.417-2.712c-1.879-4.523-4.975-8.04-9.29-10.546-4.224-2.403-9.657-3.609-16.136-3.609-7.786 0-13.874 1.707-18.568 5.013a19.108 19.108 0 00-2.322 1.966l1.758-5.374H510.01l-7.782 26.606-6.85-26.606h-15.851l-6.661 25.903-7.597-25.903h-20.83l4.121 12.478a25.182 25.182 0 00-4.868-6.25c-5.444-5.026-12.574-7.638-21.39-7.638-8.911 0-15.95 2.612-21.485 7.638-3.348 3.15-5.66 6.91-6.948 11.278v-35.983zM262.45 122.302v52.815h21.668v-52.815zm104.04 11.85c2.16 0 3.853.601 4.877 1.7 1.038 1.312 1.503 2.915 1.503 5.027v15.061c0 2.007-.466 3.714-1.693 4.923-1.125 1.308-2.528 2-4.312 2-2.437 0-4.127-1.096-5.248-3.306-1.125-2.113-1.688-5.521-1.688-10.444 0-5.117.563-8.938 1.688-11.247 1.027-2.414 2.71-3.714 4.873-3.714zm55.817 0c2.528 0 4.312 1.203 5.536 3.515 1.132 2.407 1.78 6.023 1.78 11.044 0 5.018-.651 8.637-1.78 11.048-1.224 2.305-3.005 3.515-5.536 3.515-2.53 0-4.5-1.21-5.633-3.515-1.125-2.21-1.683-5.931-1.683-11.048 0-5.025.558-8.637 1.683-11.044 1.133-2.312 3.102-3.515 5.633-3.515z" style="mix-blend-mode:normal"/><path d="M102.967 175.637l30.407-73.208c-13.34-14.776-29.931-22.019-49.855-21.64l-30.601 73.883c18.681-2.48 35.261 4.563 50.05 20.965z"/><path d="M18.882 81.258l-1.243 3.148h3.905l1.334-3.337zM23.17 71.06l-1.334 3.149 4.007-.097 1.329-3.332zm2.095 15.933l-1.906 4.477 5.433-.664 2.004-4.666zm4.288-10.305l-1.906 4.488 5.427-.67 1.907-4.665zm2.388 17.164l-2.193 5.342L36.905 99l2.278-5.622zm4.294-10.208l-2.193 5.336 7.053-.275 2.29-5.439zm4.477 13.448l-3.052 7.53 8.863-.476 3.051-7.346zM45 86.885l-3.143 7.437 8.862-.475 3.063-7.345zm11.908 22.117l3.533-8.485-10.483.853-3.435 8.388zm4.3-10.294l3.435-8.387-10.391.755-3.533 8.485z" fill="#f8682c"/><path d="M5.725 113.107l-1.334 3.143 4.008-.092 1.42-3.252zm4.288-10.3L8.68 105.86l4.002-.092 1.329-3.143zm2.096 15.922l-1.804 4.477 5.33-.664 1.907-4.672zm4.294-10.288l-1.804 4.471 5.33-.658 1.913-4.575zm2.387 17.158l-2.198 5.433 7.156-.286 2.187-5.53zm4.288-10.305l-2.284 5.439 7.248-.287 2.193-5.536zm4.472 13.637l-3.052 7.34 8.771-.372 3.143-7.437zm4.202-10.294l-3.143 7.529 8.96-.47 3.045-7.43zm4.952 14.49l-3.43 8.48 10.495-.859 3.521-8.485zm4.288-10.305l-3.43 8.48 10.484-.836 3.44-8.497z" fill="#00b4f1"/><path d="M1.242 123.784L0 126.94l4.008-.109 1.334-3.338zM14.49 91.947l-1.328 3.137h4.002l1.426-3.338zm13.06-31.563l-1.329 3.051 4.088-.097L31.746 60zM7.632 129.406l-1.718 4.392 5.342-.584 1.906-4.666zM20.88 97.66l-1.907 4.489 5.336-.67 2.004-4.678zm16.689-27.927l1.906-4.58-5.433.767-1.815 4.477zm-23.256 66.532l-2.204 5.44 7.15-.287 2.29-5.525zm20.393-32.118l-7.156.383-2.285 5.342 7.157-.177zm6.006-31.277l-2.187 5.342 7.047-.292 2.29-5.428zm-11.823 73.7l3.052-7.437-8.771.378-3.143 7.42zm16.208-39.091l-8.862.28-3.052 7.535 8.874-.47zM58.254 75.64l-8.771.384-3.143 7.534 8.862-.487zM39.28 151.42l3.521-8.388-10.38.756-3.532 8.393zm6.287-39.36l-3.624 8.484 10.586-.859 3.429-8.485zm13.162-31.753l-3.533 8.49 10.392-.858 3.532-8.382zm-3.533 64.449l-11.152.675-3.905 9.332 11.336-1.053zm4.489-10.684l-11.256.676-3.807 9.343 11.25-.956zm4.483-10.866l-11.25.67-3.819 9.252 11.342-.956zm4.385-10.483l-11.255.67-3.808 9.246 11.25-.956zm4.38-10.672l-11.147.659-3.916 9.257 11.342-.864zm4.386-10.677l-11.159.761-3.899 9.344 11.336-1.048zm4.477-10.586l-11.25.664-3.813 9.344 11.25-1.054z"/><path d="M81.991 91.047c-.889-.003-1.8.006-2.733.027l-9.635 23.265c7.099-.278 13.355.501 18.66 2.191l9.72-23.353c-4.167-1.422-9.51-2.104-16.012-2.13z" fill="#f8682c"/><path d="M120.406 104.336c-4.385-4.483-9.538-7.626-15.44-9.538l-9.917 23.93c5.927 1.933 11.725 5.51 15.624 9.155z" fill="#91c300"/><path d="M107.822 134.565c-4.39-4.397-9.63-7.351-15.635-8.966l-9.533 22.97c5.525 1.912 10.684 5.055 15.642 9.246z" fill="#ffc300"/><path d="M70.257 121.454c-1.199.003-2.41.048-3.636.133l-9.361 22.601c5.584-.283 11.826.398 18.816 1.901l9.24-22.305c-4.726-1.549-9.758-2.342-15.06-2.33z" fill="#00b4f1"/><path d="M373.615 77.029l-1.034-2.281c.611-.213.96-.686.96-1.285 0-.836-.698-1.42-1.696-1.42h-2.107v4.987h.736v-2.12h1.371l.947 2.12h.823zm-3.142-2.705v-1.659h1.371c.56 0 .91.298.91.786 0 .536-.373.873-.998.873zm1.184-4.093c-2.418 0-4.364 1.898-4.364 4.266 0 2.407 1.909 4.328 4.303 4.328 2.369 0 4.29-1.92 4.29-4.304 0-2.331-1.923-4.29-4.229-4.29zm-.012.611c1.97 0 3.629 1.685 3.629 3.68a3.68 3.68 0 01-3.679 3.693c-2.058 0-3.691-1.647-3.691-3.717 0-.885.349-1.772.947-2.432.737-.812 1.671-1.224 2.794-1.224zM571.16 126.016l-.937-2.067c.553-.193.87-.622.87-1.164 0-.759-.633-1.288-1.537-1.288h-1.91v4.52h.667v-1.92h1.243l.858 1.92h.746zm-2.848-2.452v-1.503h1.243c.508 0 .825.27.825.712 0 .486-.34.791-.905.791zm1.073-3.708c-2.191 0-3.954 1.72-3.954 3.866 0 2.18 1.73 3.921 3.899 3.921a3.89 3.89 0 003.887-3.9c0-2.112-1.742-3.887-3.832-3.887zm-.01.554c1.785 0 3.288 1.526 3.288 3.334a3.335 3.335 0 01-3.334 3.346c-1.864 0-3.345-1.491-3.345-3.367 0-.803.317-1.606.859-2.204.668-.737 1.514-1.11 2.531-1.11zM114.628 174.04l-.878-1.938c.519-.18.815-.582.815-1.09 0-.711-.593-1.207-1.44-1.207h-1.79v4.236h.625v-1.8h1.165l.804 1.8h.7zm-2.669-2.298v-1.409h1.165c.476 0 .773.254.773.668 0 .455-.317.741-.848.741zm1.006-3.476c-2.054 0-3.706 1.612-3.706 3.624a3.646 3.646 0 003.654 3.675 3.646 3.646 0 003.644-3.655c-.001-1.98-1.633-3.644-3.592-3.644zm-.01.52c1.673 0 3.082 1.43 3.082 3.125a3.126 3.126 0 01-3.125 3.136c-1.747 0-3.135-1.398-3.135-3.157 0-.752.297-1.505.805-2.065.626-.69 1.42-1.04 2.373-1.04z" clip-rule="evenodd" overflow="visible" fill-rule="evenodd"/></svg>